<?xml version="1.0" encoding="UTF-8"?>
<svg id="Layer_2" data-name="Layer 2" xmlns="http://www.w3.org/2000/svg" xmlns:xlink="http://www.w3.org/1999/xlink" viewBox="0 0 710.25 224.91">
  <defs>
    <style>
      .cls-1 {
        fill: url(#linear-gradient);
      }

      .cls-2 {
        fill: url(#linear-gradient-2);
        stroke: url(#linear-gradient-3);
        stroke-miterlimit: 10;
      }
    </style>
    <linearGradient id="linear-gradient" x1="48.19" y1="2.03" x2="159.43" y2="228.14" gradientUnits="userSpaceOnUse">
      <stop offset=".15" stop-color="#619cc1"/>
      <stop offset=".16" stop-color="#63a3c0"/>
      <stop offset=".21" stop-color="#6bc3bf"/>
      <stop offset=".25" stop-color="#70d6bf"/>
      <stop offset=".27" stop-color="#72ddbf"/>
      <stop offset=".33" stop-color="#6ed6bf"/>
      <stop offset=".41" stop-color="#63c2bf"/>
      <stop offset=".5" stop-color="#52a3c0"/>
      <stop offset=".5" stop-color="#52a3c1"/>
      <stop offset=".72" stop-color="#5574ce"/>
      <stop offset=".74" stop-color="#5679cc"/>
      <stop offset=".82" stop-color="#5c8cc5"/>
      <stop offset=".91" stop-color="#5f98c2"/>
      <stop offset="1" stop-color="#619cc1"/>
    </linearGradient>
    <linearGradient id="linear-gradient-2" x1="240.25" y1="112.45" x2="709.75" y2="112.45" gradientUnits="userSpaceOnUse">
      <stop offset="0" stop-color="#2563eb"/>
      <stop offset=".08" stop-color="#2174dd"/>
      <stop offset=".23" stop-color="#1b91c5"/>
      <stop offset=".39" stop-color="#17a6b3"/>
      <stop offset=".54" stop-color="#14b3a9"/>
      <stop offset=".69" stop-color="#14b8a6"/>
      <stop offset="1" stop-color="#14b8a6"/>
    </linearGradient>
    <linearGradient id="linear-gradient-3" x1="239.75" x2="710.25" xlink:href="#linear-gradient-2"/>
  </defs>
  <g id="Layer_1-2" data-name="Layer 1">
    <g>
      <path class="cls-1" d="M167.79,127.06v24.73l-11.29,6.52-16.85,9.72-16.01,9.24-21.42,12.37-21.43-12.36-15.35-8.87-16.61-9.6-11.53-6.65v-20.84l3.38-1.95,24.76-14.3v28.6l4.81,2.78,31.98,18.46,32.85-18.97,4.58-2.65,24.99-14.43,3.15-1.82Zm-127.34-30.43l24.99-14.43,4.58-2.65,32.85-18.97,31.98,18.46,4.81,2.78v28.6l24.76-14.3,3.38-1.95v-20.84l-11.53-6.65-16.61-9.6-15.35-8.87-21.43-12.36-21.42,12.37-16.01,9.24-16.85,9.72-11.29,6.52v24.73l3.15-1.82Zm62.1-.95l-29.57,17.07,29.57,17.07,29.57-17.07-29.57-17.07Zm90.46-43.6l-9.43-5.45-16.23-9.37-12.92-7.47-15.22-8.78-6.2-3.58-18.43-10.64L102.82,0l-11.78,6.8-19.45,11.23-6.59,3.81-14.83,8.57-13.3,7.68-14.95,8.63-10.14,5.85L0,59.37v92.58l.58,.33-.58,.33v12.92l11.77,6.8,6.61,3.82,18.47,10.66,13.49,7.79,14.65,8.46,6.77,3.91,19.27,11.13,11.77,6.8,11.77-6.8,18.24-10.53,6.39-3.69,15.03-8.68,13.11-7.56,19.75-11.4,5.91-3.41,11.77-6.8v-60.59l-11.77,6.8v47l-17.68,10.2-7.98,4.6-24.88,14.36-3.26,1.88-18.16,10.49-18.24,10.53-19.27-11.13-18.54-10.7-2.87-1.66-25.26-14.59-6.7-3.88-18.39-10.61v-45.79l-.69-.4,.69-.39v-46.01l21.91-12.65,3.18-1.83,25.08-14.48,3.06-1.77,18.37-10.6,19.45-11.23,18.42,10.64,17.98,10.38,3.44,1.98,24.7,14.27,4.44,2.57,21.21,12.24v17.32l11.77-6.39v-17.73l-11.77-6.8Z"/>
      <path class="cls-2" d="M287.2,164.13h-46.95v-10.33l35.43-82.53h-33.81v-10.48h45.62v10.33l-35.58,82.53h35.29v10.48Zm37.06-20.82l-3.99,20.82h-10.63l19.78-103.35h16.68l19.78,103.35h-11.52l-3.99-20.82h-26.13Zm1.48-9.89h23.03l-11.66-59.65-11.37,59.65Zm99.21-24.51v10.48h-23.77v44.74h-11.52V60.78h41.04v10.48h-29.53v37.65h23.77Zm44.59,55.22V71.26h-19.05v-10.48h49.46v10.48h-19.05v92.87h-11.37Zm89.77-57.58v10.33h-25.25v36.76h31v10.48h-42.52V60.78h42.52v10.48h-31v35.29h25.25Zm53.45-46.8c7.97,0,13.85,2.36,17.64,7.09,3.79,4.72,5.68,11.02,5.68,18.9v9.3h-10.93v-9.89c0-4.72-.96-8.39-2.88-11-1.92-2.61-5-3.91-9.23-3.91s-7.19,1.31-9.15,3.91c-1.97,2.61-2.95,6.28-2.95,11v54.63c0,4.72,.98,8.39,2.95,11,1.97,2.61,5.02,3.91,9.15,3.91s7.31-1.3,9.23-3.91c1.92-2.61,2.88-6.27,2.88-11v-13.44h10.93v12.85c0,7.88-1.9,14.17-5.68,18.9-3.79,4.72-9.67,7.09-17.64,7.09s-13.71-2.36-17.5-7.09c-3.79-4.72-5.68-11.02-5.68-18.9v-53.45c0-3.94,.47-7.5,1.4-10.7,.93-3.2,2.36-5.93,4.28-8.19,1.92-2.26,4.33-4.01,7.23-5.24,2.9-1.23,6.32-1.85,10.26-1.85Zm60.09,57.88v46.51h-11.52V60.78h11.52v46.51h25.39V60.78h11.52v103.35h-11.52v-46.51h-25.39Z"/>
    </g>
  </g>
</svg>