<svg xmlns="http://www.w3.org/2000/svg" shape-rendering="geometricPrecision" viewBox="183.56 398.05 662.41 229.77"><path fill="#619cc1" fill-rule="evenodd" d="M183.94 458.527c3.939-2.577 8.145-4.651 12.181-7.065 17.535-10.491 35.483-20.301 52.98-30.851 8.378-5.052 16.924-9.805 25.34-14.788 4.328-2.562 8.846-6.215 13.65-7.775 3.643.828 7.358 4.016 10.575 5.874 7.183 4.148 14.381 8.267 21.565 12.413 15.524 8.959 30.969 18.058 46.44 27.113 8.708 5.096 17.697 9.816 26.224 15.208.491 1.527-.026 4.194-.022 5.843.012 4.252.347 8.651-.028 12.885-1.926 1.853-5.765 3.088-8.18 4.228-.876.414-1.759.786-2.605 1.261-.283.159-1.603 1.158-1.595.768-.02-5.855-.057-11.729-.029-17.59-6.311-4.869-14.255-8.082-21.125-12.113-13.508-7.926-27.016-15.857-40.598-23.654-6.856-3.935-13.698-7.936-20.459-12.033-3.098-1.877-6.742-4.836-10.272-5.724-4.288 1.353-8.361 4.761-12.269 6.981-9.521 5.409-18.918 11.048-28.44 16.448-11.441 6.488-22.612 13.453-34.056 19.938-3.538 2.006-7.022 4.108-10.562 6.11-2.258 1.277-5.105 2.522-7.051 4.228.821 7.406.021 15.316.028 22.776.015 15.334.051 30.667.055 46 .001 6.166.011 12.332-.004 18.499-.005 1.999-.685 5.763.154 7.528 9.096 4.651 17.813 10.083 26.679 15.159 14.29 8.18 28.542 16.442 42.788 24.693 5.723 3.314 11.535 6.473 17.257 9.79 1.378.799 4.591 3.595 6.21 2.931 2.599-1.408 4.998-3.235 7.602-4.667 15.505-8.525 30.658-17.713 46.034-26.47 8.253-4.702 16.496-9.426 24.76-14.11 4.406-2.498 9.199-4.796 13.273-7.811.409-1.364.142-3.03.136-4.441-.013-3.005-.078-6.01-.109-9.01-.096-9.502.276-19.062-.038-28.544 3.774-2.458 8.314-5.265 12.659-6.526.166 12.635-.156 25.321-.134 37.97.007 4.105.154 8.2.113 12.306-.016 1.661.225 3.829-.321 5.41-7.535 5.655-16.631 9.681-24.758 14.433-17.127 10.016-34.344 19.924-51.648 29.627a771 771 0 0 0-19.679 11.392c-2.045 1.227-4.12 2.425-6.237 3.523-.789.409-1.481 1.091-2.397 1.124-1.126-.238-2.158-1.123-3.136-1.71-2.137-1.281-4.32-2.503-6.49-3.727-7.653-4.315-15.278-8.673-22.915-13.014-15.911-9.044-31.576-18.527-47.542-27.474-8.017-4.492-16.535-8.635-24.119-13.834-.428-1.024-.182-2.437-.174-3.55.015-2-.048-4-.048-6 0-7.499-.062-14.998-.035-22.499.06-16.333.008-32.667.052-49.001.025-9.357.326-18.793-.006-28.14z"/><path fill="#61cab1" fill-rule="evenodd" d="m220.97 470.095.063-.495c4.421-3.017 9.516-5.177 14.242-7.677 10.955-5.795 21.921-11.576 32.87-17.381 4.771-2.529 9.513-5.107 14.292-7.621 1.787-.94 4.073-2.78 6.051-3.064 2.475.801 4.877 2.577 7.122 3.874 2.958 1.709 6.085 3.163 9.1 4.773 10.325 5.513 20.715 10.906 30.976 16.54 4.363 2.396 8.786 4.682 13.189 7.003 1.814.956 4.627 1.927 6.017 3.428-.97 8.004.705 16.305-.06 24.33-2.517 2.374-6.788 3.844-9.845 5.439-3.833 2-7.689 3.955-11.517 5.961-2.318 1.215-4.67 2.913-7.116 3.81.307-5.809-.104-11.696-.104-17.514-.001-3.464.558-7.428.071-10.836-3.186-2.157-6.874-3.795-10.294-5.554-5.509-2.834-10.884-5.933-16.342-8.862-2.68-1.438-5.329-2.935-8.029-4.333-1.078-.558-2.311-1.479-3.515-1.649-8.2 3.333-16.005 8.464-23.826 12.615-14.517 7.703-29.186 15.233-43.335 23.592.447-8.761-.154-17.611-.01-26.379"/><path fill="#5574ce" fill-rule="evenodd" d="M220.961 531.635c.053-.563.032-.264.057-.897 2.982-2.542 7.243-4.124 10.668-6.01 6.021-3.315 11.962-6.867 18.09-9.967.271 2.491-.107 5.232-.123 7.748-.03 4.499.089 8.999.102 13.497.007 2.34-.717 6.377.269 8.481 9.183 4.339 17.94 9.716 26.927 14.454 2.701 1.423 5.324 2.992 8.024 4.421.944.499 1.996 1.357 3.051 1.569 1.498.301 3.684-1.43 4.957-2.085 4.186-2.154 8.309-4.423 12.467-6.63 16.38-8.697 32.639-17.819 49.175-26.183.791 1.636.25 4.642.258 6.463.019 4.348.016 8.694.067 13.041.021 1.751.48 4.52-.234 6.111-6.878 4.35-14.546 7.729-21.75 11.513-9.028 4.74-18 9.6-27.126 14.153-4.268 2.13-8.49 4.386-12.696 6.636-1.248.668-3.569 2.497-4.993 2.381-1.859-.151-4.259-2.006-5.89-2.881-4.404-2.364-8.869-4.625-13.306-6.928-11.405-5.917-22.787-11.88-34.058-18.049-4.527-2.477-9.264-4.68-13.649-7.4-.806-1.234-.29-4.808-.295-6.365-.018-5.648.481-11.444.008-17.073"/><path fill="#52a3c1" fill-rule="evenodd" d="M255.774 511.587c7.195-3.813 14.288-7.828 21.468-11.676 3.497-1.875 7.024-4.907 10.854-6.015 1.028.269 2.006 1.065 2.964 1.536 2.805 1.377 5.531 2.961 8.248 4.503 6.954 3.944 14.111 7.955 21.248 11.531-.105.61-1.194.81-1.712 1.072a174 174 0 0 0-5.776 3.076c-4.996 2.773-10.09 5.363-15.111 8.088-3.074 1.669-6.196 3.918-9.488 5.105-1.229-.11-2.317-.973-3.376-1.557-1.984-1.095-3.962-2.192-5.98-3.225-7.828-4.009-15.497-8.389-23.473-12.097z"/><path fill="#57acc0" fill-rule="evenodd" d="M478.313 468.918c.261-.964-2.74-.613-3.338-.56-8.249.363-16.711.219-24.974.063-2.255-.043-4.508-.182-6.765-.15-.933.013-2.256.35-3.124-.002a82 82 0 0 1-.258-10.271c4.402-.701 9.186-.238 13.64-.244 7.837-.009 15.672-.077 23.509-.073 3.494.001 6.995.032 10.489-.031 1.456-.026 3.437-.59 4.825-.135-.698 3.425.878 7.357-.525 10.684-2.017 4.781-5.902 8.756-8.796 13.007-6.341 9.314-12.288 18.932-18.395 28.403-2.338 3.626-4.659 7.245-6.9 10.933-1.071 1.764-2.388 3.587-3.091 5.53 13.13.161 26.311-.089 39.436.28.441 2.676.685 7.107-.373 9.641-4.403.728-9.214.207-13.668.227-8.5.037-17 .071-25.501.071q-5.25.001-10.502-.02c-1.022-.005-2.917.392-3.767-.093-.729-2.272-1.295-4.376-.955-6.796.789-5.619 5.883-10.617 8.905-15.198 6.914-10.482 14.033-20.824 20.965-31.296 3.007-4.543 7.275-8.813 9.163-13.97"/><path fill="#21474c" fill-rule="evenodd" d="M474.975 468.358c.598-.053 3.599-.404 3.338.56-.2-.593-2.724-.384-3.338-.56"/><path fill="#56b2c2" fill-rule="evenodd" d="M502.467 504.612c1.314-7.064 3.721-14.153 9.155-19.19 6.72-6.226 17.695-9.308 26.633-6.513 5.328 1.667 9.942 5.634 12.948 10.252.276-.15.125-1.922.156-2.264.231-2.572.436-5.108.444-7.694 3.165-.355 6.222-.087 9.384.005.639 1.491.368 3.692.38 5.295.029 3.826.022 7.652-.003 11.477-.087 13.219-.782 26.573-.3 39.775-3.214.701-6.486.07-9.725.097-.92-.965-.941-4.958-1.011-6.269-2.252.552-4.238 2.769-6.219 3.961-3.204 1.93-6.652 3.054-10.369 3.485-5.319.616-10.921.114-15.796-2.253-10.861-5.274-17.003-18.395-15.677-30.164m10.908-1.027c-2.158 13.104 9.889 27.484 23.743 24.046 4.559-1.131 8.539-5.372 11.008-9.143 1.714-2.619 2.956-5.457 3.471-8.559.842-5.059-1.093-9.423-3.721-13.63-1.105-1.768-2.217-3.666-3.954-4.895-4.79-3.39-12.242-4.513-17.876-2.869-4.055 1.183-7.609 4.827-9.831 8.278-1.313 2.04-2.442 4.357-2.84 6.772"/><path fill="#5ed0b2" fill-rule="evenodd" d="M572.213 479.776c2.792-.351 5.719-.799 8.529-.868.681-.827.365-2.964.358-3.973-.018-2.911-.014-5.84.759-8.668 1.586-5.801 6.649-10.355 12.535-11.637 3.803-.828 7.91-.517 11.773-.354-.127 2.386 1.484 6.322.006 8.447-1.228 1.766-4.377.127-6.092.732-1.801.634-4.045 1.266-5.484 2.557-3.415 3.065-3.115 8.459-2.092 12.539 1.381.57 3.391.238 4.874.261 2.951.048 5.835.194 8.768.506.765 1.5.176 4.656.095 6.323-.028.57.018 1.881-.466 2.231-4.372-.068-9.334-.591-13.632.236-.272 11.318-.702 22.809-.131 34.131.136 2.679.047 5.365.1 8.047.042 2.116.235 4.128-1.381 5.777-3.158.278-5.769.165-8.9-.056-.765-2.626-.143-6.233-.279-8.994-.433-8.807-.154-17.687-.109-26.508.019-3.721.956-9.202-.581-12.654-1.938-1.241-6.214-1.012-8.493-.853-.375-.335-.218-1.215-.228-1.716-.037-1.838.026-3.67.071-5.506"/><path fill="#63d9b2" fill-rule="evenodd" d="m611.945 480.061.168-.543c3.045-.603 6.658-.602 9.762-.585.564-3.898.219-8.002.333-11.937.045-1.545-.255-3.456.328-4.898 2.783-.906 6.451-.431 9.361-.333.788 1.101.433 3.428.475 4.738.134 4.206-.278 8.492.199 12.674 4.665.203 9.809-.662 14.386.232 1.089 1.861 1.419 7.311-.638 8.731-4.677.485-9.443-.189-14.132.154.467 8.495-.026 17.177-.059 25.691-.013 3.419-.632 8.034 2.169 10.553 2.123 1.909 5.034 2.485 7.816 2.417 1.317-.033 3.856-.496 4.923.342 1.276 1.93.934 6.665-.032 8.738-2.527.574-5.352.647-7.935.644-2.079-.003-4.237-.061-6.257-.596-1.513-.401-2.974-.989-4.298-1.826-7.672-4.848-6.682-15.5-6.703-23.256-.02-7.505-.145-15.065.07-22.564-.797-.433-1.903-.308-2.797-.38-2.408-.191-4.815.1-7.227-.147-.727-2.25-.366-5.56.088-7.849"/><path fill="#6ce2a9" fill-rule="evenodd" d="M656.427 503.609c.748-3.886 1.448-7.625 3.553-11.081 7.264-11.924 21.584-17.218 34.937-13.437 10.197 2.887 17.699 13.41 18.751 23.677.297 2.905.614 6.657-.683 9.356-1.418.478-3.486.184-4.977.172-3-.023-6 .003-8.999-.005-10.63-.029-21.356-.396-31.974-.026.073 1.29-.391 2.907.009 4.141.439 1.355 1.716 2.576 2.539 3.714 4.354 6.02 10.421 8.184 17.726 7.767 4.709-.268 12.811-3.282 13.231-8.885 2.618.122 5.241.163 7.854.402.925.085 2.237.031 3.031.53-2.391 13.49-17.838 18.097-29.688 17.232-3.324-.242-6.726-.729-9.77-2.15-12.177-5.685-16.667-18.798-15.54-31.407m10.468-1.563c-.148.753-.07.363-.234 1.168 3.367.413 7.081-.211 10.487-.248 8.848-.097 17.772-.411 26.603.268-.744-1.399-.955-3.133-1.604-4.599-1.427-3.225-3.782-6.18-6.707-8.158-2.48-1.678-5.416-2.423-8.369-2.628-2.902-.202-5.825-.22-8.625.704-5.993 1.978-9.816 7.755-11.551 13.493"/><path fill="#79eda7" fill-rule="evenodd" d="M723.458 505.606c1.05-4.784 1.978-9.344 4.535-13.63 7.362-12.336 21.93-16.24 35.471-12.889 6.587 1.63 12.164 6.762 15.048 12.8.643 1.346 1.22 2.73 1.901 4.054.101.196.652 1.044.539 1.213-3.794-.033-7.284.074-11.007.844-1.809-1.163-3.002-4.101-4.378-5.763-1.774-2.143-4.545-3.229-7.199-3.824-2.992-.67-6.385-.679-9.43-.268-3.132.423-5.425 2.094-7.819 4.011-5.931 4.748-8.531 11.633-6.848 19.193 2.564 11.509 14.073 19.447 25.788 15.767 3.133-.985 5.891-3.659 7.723-6.313.653-.946 1.131-2.272 1.938-3.074 2.396-.232 4.873.001 7.28-.001 1.165-.001 2.726-.24 3.832.143-3.098 7.862-7.804 14.327-15.974 17.556-7.544 2.981-17.267 2.925-24.684-.377-10.87-4.839-18.095-17.607-16.716-29.442"/><path fill="#7df2a7" fill-rule="evenodd" d="M794.202 455.208c3.556-.36 7.329-.539 10.879 0 .32 4.914.076 9.871.146 14.798.077 5.467.473 10.978.278 16.43.762-.215 1.368-1.937 1.841-2.558 1.056-1.383 2.571-2.492 4.022-3.431 5.831-3.773 14.756-3.695 21.053-1.148 16.381 6.628 13.329 27.631 13.331 41.703 0 3.834.054 7.671.003 11.504-.012.895.409 3.282-.233 3.949-2.051.386-4.176.147-6.247.258-1.233.067-2.411.313-3.492-.398-.555-.907-.404-2.094-.403-3.129.001-2.393.029-4.787.016-7.18-.036-6.502-.045-13.003-.06-19.504-.012-4.668.156-9.307-2.632-13.339-6.583-9.519-24.924-6.296-27.466 5.272-.764 3.478-.455 7.193-.437 10.727q.045 8.67.021 17.339c-.007 2.448-.007 4.897-.067 7.345-.017.72.176 2.316-.361 2.863-2.297.11-4.6.129-6.899.18-.907.02-2.408.249-3.222-.119-.118-18.758-.087-37.51-.101-56.27-.006-8.409.332-16.891.03-25.292"/></svg>